<?xml version="1.0" standalone="no"?>
<!DOCTYPE svg PUBLIC "-//W3C//DTD SVG 20010904//EN"
 "http://www.w3.org/TR/2001/REC-SVG-20010904/DTD/svg10.dtd">
<svg version="1.0" xmlns="http://www.w3.org/2000/svg"
 width="920.000000pt" height="375.000000pt" viewBox="0 0 920.000000 375.000000"
 preserveAspectRatio="xMidYMid meet">

<g transform="translate(0.000000,375.000000) scale(0.100000,-0.100000)"
fill="#000000" stroke="none">
<path d="M1186 2905 c-115 -69 -204 -166 -266 -290 -95 -192 -89 -346 20 -455
39 -39 109 -79 138 -80 26 0 23 33 -9 97 -30 58 -34 77 -37 162 -5 115 14 204
63 306 33 69 107 165 126 165 7 0 9 -231 7 -647 -4 -631 -5 -650 -26 -723 -27
-95 -28 -110 -2 -110 50 0 138 78 179 159 51 100 53 124 58 769 6 679 12 625
-72 663 -62 29 -112 24 -179 -16z"/>
<path d="M3301 2931 c-10 -7 -16 -35 -18 -98 -2 -48 -5 -110 -6 -138 l-2 -50
-102 0 c-124 0 -137 -8 -138 -87 l0 -53 60 -2 c33 -2 84 -5 113 -9 l52 -5 0
-238 c0 -208 -2 -245 -19 -294 -21 -61 -75 -150 -112 -184 l-24 -22 -1 57 c0
41 -8 71 -26 108 -30 57 -64 90 -195 187 l-91 69 39 56 c68 97 82 183 35 221
-22 19 -115 17 -151 -2 -109 -57 -155 -189 -100 -285 l25 -43 -24 -48 c-46
-89 -157 -276 -197 -328 -23 -31 -48 -53 -58 -53 -44 0 -46 16 -46 352 l0 320
-25 20 c-47 39 -129 71 -167 65 -108 -18 -205 -162 -304 -452 -13 -36 -14 -20
-17 186 l-2 225 -35 17 c-51 24 -112 32 -130 17 -13 -11 -15 -70 -15 -429 0
-376 2 -419 18 -451 20 -41 53 -60 103 -60 55 0 65 15 88 130 40 204 106 392
184 526 39 66 102 142 111 134 3 -3 0 -115 -6 -248 -16 -362 7 -494 90 -529
46 -19 89 -11 149 30 67 45 127 124 249 329 l106 178 63 -56 c134 -117 176
-218 125 -301 -39 -65 -93 -67 -180 -7 -60 41 -87 40 -120 -6 -32 -45 -41 -84
-24 -108 39 -56 248 -90 359 -58 121 35 222 127 292 264 l38 75 8 -53 c25
-177 94 -274 209 -295 21 -4 52 -2 71 4 48 16 115 87 159 168 30 54 38 64 43
48 62 -193 206 -269 364 -193 49 24 114 86 138 132 l16 31 12 -43 c32 -108
133 -169 234 -142 49 13 113 67 131 110 14 35 26 38 35 11 3 -11 24 -38 47
-60 99 -100 254 -88 365 28 l43 45 0 -43 c0 -43 -2 -46 -169 -210 -200 -197
-226 -238 -226 -358 0 -63 3 -76 30 -115 70 -98 221 -132 338 -75 152 75 207
224 207 564 l0 186 59 76 c110 143 209 317 271 476 13 33 27 64 31 69 4 5 40
11 78 14 82 5 80 10 56 -103 -35 -168 -29 -364 16 -464 48 -110 163 -177 258
-151 40 11 102 62 132 109 l15 23 24 -36 c57 -84 162 -121 261 -93 63 19 142
82 180 144 l23 36 10 -34 c27 -85 91 -143 172 -155 62 -9 129 25 171 89 l32
48 7 -51 c9 -68 34 -85 126 -85 40 0 72 5 80 13 8 8 15 64 20 164 5 108 14
180 33 253 35 141 91 275 115 275 4 0 10 -64 14 -142 9 -189 32 -362 55 -414
24 -53 60 -77 116 -77 64 0 71 10 78 112 9 122 47 296 92 416 20 55 41 104 46
109 5 6 9 -59 9 -160 1 -263 23 -387 83 -465 64 -84 175 -110 251 -58 89 59
154 319 81 319 -17 0 -27 -19 -49 -100 -40 -144 -112 -165 -162 -48 -16 38
-19 82 -24 356 l-5 313 -25 19 c-29 23 -122 60 -149 60 -39 0 -68 -39 -104
-137 -39 -106 -79 -242 -98 -338 l-13 -60 -7 45 c-3 25 -10 125 -14 223 -7
154 -10 181 -27 202 -24 31 -61 51 -110 60 -78 15 -92 -5 -174 -240 l-53 -150
0 171 c-1 199 1 195 -100 215 -95 18 -91 31 -91 -310 0 -306 -3 -328 -54 -429
-30 -59 -63 -85 -102 -80 -68 8 -87 139 -77 524 l6 241 -27 18 c-35 23 -130
32 -151 15 -8 -7 -15 -24 -15 -39 l-1 -26 -20 28 c-12 15 -40 38 -62 51 -128
73 -260 19 -345 -141 -63 -119 -94 -316 -73 -464 12 -90 3 -134 -38 -178 -39
-42 -80 -42 -115 -1 -34 41 -47 88 -53 200 -5 96 5 182 43 357 22 101 15 130
-39 157 -37 18 -40 18 -150 -3 -62 -12 -115 -21 -118 -21 -3 0 -5 23 -5 51 1
44 -3 54 -27 75 -78 67 -199 -13 -199 -132 0 -41 6 -55 47 -110 20 -28 -73
-260 -163 -404 l-47 -75 -3 326 -2 327 -40 16 c-48 19 -121 21 -138 4 -7 -7
-12 -23 -12 -38 l-1 -25 -20 28 c-36 48 -104 80 -168 80 -107 0 -184 -58 -245
-185 -56 -117 -69 -189 -70 -383 -1 -167 -2 -171 -29 -217 -41 -70 -94 -78
-133 -20 -33 49 -38 109 -36 434 l3 297 -27 17 c-33 22 -129 31 -149 14 -8 -7
-15 -24 -15 -38 l0 -25 -21 27 c-37 47 -105 79 -168 79 -71 0 -119 -21 -169
-72 -87 -89 -134 -223 -151 -431 -11 -124 -38 -195 -101 -264 -72 -78 -116
-61 -146 54 -15 57 -16 105 -10 394 4 181 9 333 12 337 3 5 64 9 135 9 l130 0
15 36 c18 42 15 74 -6 85 -8 5 -73 11 -144 15 l-128 6 3 132 4 131 -65 22
c-70 24 -107 28 -129 14z m845 -626 c53 -22 84 -98 91 -224 12 -217 -43 -398
-138 -446 -40 -21 -54 -19 -92 15 -55 48 -72 117 -72 290 1 121 4 157 23 217
24 79 60 129 107 149 38 17 39 17 81 -1z m911 -7 c13 -6 33 -32 45 -57 21 -42
23 -60 23 -201 -1 -162 -14 -240 -55 -321 -21 -40 -68 -84 -101 -94 -31 -10
-76 13 -99 50 -78 127 -59 469 33 580 49 60 94 73 154 43z m1540 5 c55 -26 84
-98 91 -229 11 -222 -49 -403 -148 -444 -102 -42 -168 104 -156 345 10 210 52
308 146 338 25 9 30 8 67 -10z m-1462 -1195 c-18 -106 -44 -162 -88 -188 -77
-48 -167 1 -167 90 0 76 70 196 188 322 l77 81 3 -107 c2 -66 -3 -144 -13
-198z"/>
</g>
</svg>
